<?xml version="1.0" encoding="UTF-8"?>
<svg id="Laag_2" data-name="Laag 2" xmlns="http://www.w3.org/2000/svg" viewBox="0 0 921.79 110.17">
  <defs>
    <style>
      .cls-1 {
        stroke-width: 0px;
      }
    </style>
  </defs>
  <g id="Laag_1-2" data-name="Laag 1">
    <g>
      <path class="cls-1" d="M48.39,88.56v15.12c0,2.88,2.02,4.32,6.34,4.32h4.32v2.16h-25.92v-2.16h4.32c4.32,0,6.34-1.44,6.34-4.32v-15.12l-16.42-28.88c-1.51-2.59-4.32-3.53-6.91-3.53h-2.45v-2.16h23.04v2.16h-2.88c-3.53,0-5.47.86-5.47,2.88,0,.58.14.94.43,1.44l14.47,25.27,12.89-24.55c.43-.86.65-1.58.65-2.16,0-2.02-2.23-2.88-5.69-2.88h-2.16v-2.16h20.16v2.16h-3.17c-4.46,0-4.82,1.22-6.91,5.04l-14.98,27.36Z"/>
      <path class="cls-1" d="M30.39,34.56v15.12c0,2.88,2.02,4.32,6.34,4.32h4.32v2.16H15.12v-2.16h4.32c4.32,0,6.34-1.44,6.34-4.32v-15.12L9.36,5.69c-1.51-2.59-4.32-3.53-6.91-3.53H0V0h23.04v2.16h-2.88c-3.53,0-5.47.86-5.47,2.88,0,.58.14.94.43,1.44l14.47,25.27,12.89-24.55c.43-.86.65-1.58.65-2.16,0-2.02-2.23-2.88-5.69-2.88h-2.16V0h20.16v2.16h-3.17c-4.46,0-4.82,1.22-6.91,5.04l-14.98,27.36Z"/>
      <path class="cls-1" d="M67.39,34.56v15.12c0,2.88,2.02,4.32,6.34,4.32h4.32v2.16h-25.92v-2.16h4.32c4.32,0,6.34-1.44,6.34-4.32v-15.12L46.36,5.69c-1.51-2.59-4.32-3.53-6.91-3.53h-2.45V0h23.04v2.16h-2.88c-3.53,0-5.47.86-5.47,2.88,0,.58.14.94.43,1.44l14.47,25.27,12.89-24.55c.43-.86.65-1.58.65-2.16,0-2.02-2.23-2.88-5.69-2.88h-2.16V0h20.16v2.16h-3.17c-4.46,0-4.82,1.22-6.91,5.04l-14.98,27.36Z"/>
      <g>
        <path class="cls-1" d="M112.52,36.02c10.8,0,18.72,7.92,18.72,18.72s-7.92,18.72-18.72,18.72-18.72-7.92-18.72-18.72,7.92-18.72,18.72-18.72ZM111.8,71.31c8.64,0,13.68-7.2,13.68-17.28,0-9.36-4.32-15.84-12.24-15.84-8.64,0-13.68,7.13-13.68,17.28,0,9.29,4.32,15.84,12.24,15.84Z"/>
        <path class="cls-1" d="M149.24,61.23c0,5.83,3.75,7.92,8.07,7.92,6.19,0,10.66-6.12,10.66-12.24v-13.68c0-3.17-2.16-4.32-4.75-4.32h-2.45v-2.16h11.52v27.94c0,3.31,1.01,4.46,3.31,4.46,1.01,0,2.74-.43,3.89-.72v2.16l-12.24,2.88-.29-.29,1.73-10.08h-.29c-3.89,6.05-7.34,10.37-13.68,10.37s-9.79-4.32-9.79-9.94v-20.31c0-3.17-2.16-4.32-4.75-4.32h-1.73v-2.16h10.8v24.48Z"/>
        <path class="cls-1" d="M197.48,66.27c0,3.17,2.16,4.32,4.75,4.32h2.45v2.16h-18.72v-2.16h2.45c2.59,0,4.75-1.15,4.75-4.32v-18c0-4.03-.29-6.05-2.59-6.05-1.01,0-2.02.29-3.89,1.01l-.72-2.16,13.68-5.04.29.29-3.17,8.64h.29c4.82-4.75,9.94-8.93,13.68-8.93,1.73,0,3.31.58,3.31,2.74,0,2.02-1.01,3.02-3.02,3.02h-4.18c-5.76,0-9.22,4.9-9.36,5.18v19.3Z"/>
        <path class="cls-1" d="M243.56,72.75v-2.16h2.45c2.59,0,4.75-1.15,4.75-4.32v-27.36h-7.2v-2.16h7.2v-4.32c0-7.2,4.61-16.56,12.96-16.56,3.46,0,5.76,1.66,5.76,4.32,0,2.16-1.66,2.88-2.88,2.88-3.74,0-3.6-3.6-7.2-3.6-2.88,0-4.32,2.88-4.32,11.81v5.47h8.64v2.16h-8.64v27.36c0,3.17,2.16,4.32,4.75,4.32h2.45v2.16h-18.72Z"/>
        <path class="cls-1" d="M297.56,66.27v-3.17h-.29c-2.67,4.68-6.7,10.37-15.19,10.37-7.2,0-11.88-3.24-11.88-9.36,0-9,7.2-10.51,16.27-11.59,6.55-.79,11.09-1.73,11.09-5.76,0-5.69-3.96-8.93-10.44-8.93-6.84,0-7.34,2.45-7.71,5.11-.36,2.59-.58,5.33-4.03,5.33-1.37,0-3.02-.72-3.02-2.88,0-4.03,6.48-9.36,15.12-9.36,7.2,0,14.4,2.16,14.4,10.73v18.79c0,2.16.72,4.32,2.88,4.32,3.17,0,4.1-4.32,4.32-5.04l1.44.72c-1.51,4.32-3.6,7.92-7.2,7.92s-5.76-2.88-5.76-7.2ZM297.56,51.51c-2.74,1.22-6.7,2.16-10.44,2.88-6.48,1.22-11.16,2.88-11.16,9,0,5.4,3.31,7.2,7.92,7.2,10.44,0,13.68-11.52,13.68-15.12v-3.96Z"/>
        <path class="cls-1" d="M313.68,38.91h-1.73v-2.16h17.28v2.16h-2.16c-2.16,0-4.03.36-4.03,2.45,0,.72.22,1.3.43,1.87l8.5,22.18,8.06-21.46c.36-.94.43-1.58.43-2.16,0-2.52-2.59-2.88-5.18-2.88h-1.73v-2.16h16.56v2.16h-1.73c-2.59,0-4.68,1.01-6.19,5.04l-11.38,29.52h-.29l-12.1-30.96c-1.08-2.67-2.3-3.6-4.75-3.6Z"/>
        <path class="cls-1" d="M373.88,36.02c10.8,0,18.72,7.92,18.72,18.72s-7.92,18.72-18.72,18.72-18.72-7.92-18.72-18.72,7.92-18.72,18.72-18.72ZM373.16,71.31c8.64,0,13.68-7.2,13.68-17.28,0-9.36-4.32-15.84-12.24-15.84-8.64,0-13.68,7.13-13.68,17.28,0,9.29,4.32,15.84,12.24,15.84Z"/>
        <path class="cls-1" d="M410.6,61.23c0,5.83,3.74,7.92,8.06,7.92,6.19,0,10.66-6.12,10.66-12.24v-13.68c0-3.17-2.16-4.32-4.75-4.32h-2.45v-2.16h11.52v27.94c0,3.31,1.01,4.46,3.31,4.46,1.01,0,2.74-.43,3.89-.72v2.16l-12.24,2.88-.29-.29,1.73-10.08h-.29c-3.89,6.05-7.34,10.37-13.68,10.37s-9.79-4.32-9.79-9.94v-20.31c0-3.17-2.16-4.32-4.75-4.32h-1.73v-2.16h10.8v24.48Z"/>
        <path class="cls-1" d="M458.83,66.27c0,3.17,2.16,4.32,4.75,4.32h2.45v2.16h-18.72v-2.16h2.45c2.59,0,4.75-1.15,4.75-4.32v-18c0-4.03-.29-6.05-2.59-6.05-1.01,0-2.02.29-3.89,1.01l-.72-2.16,13.68-5.04.29.29-3.17,8.64h.29c4.82-4.75,9.94-8.93,13.68-8.93,1.73,0,3.31.58,3.31,2.74,0,2.02-1.01,3.02-3.02,3.02h-4.18c-5.76,0-9.22,4.9-9.36,5.18v19.3Z"/>
        <path class="cls-1" d="M479.71,72.75v-2.16h2.45c2.59,0,4.75-1.15,4.75-4.32v-18c0-4.1-.36-6.34-2.59-6.34-1.01,0-2.23.58-3.89,1.3l-.72-2.16,11.23-5.04.29.29v29.96c0,3.17,2.16,4.32,4.75,4.32h2.45v2.16h-18.72ZM488.21,19.1c2.16,0,4.32,1.44,4.32,4.32s-2.16,4.32-4.32,4.32-4.32-1.44-4.32-4.32,2.23-4.32,4.32-4.32Z"/>
        <path class="cls-1" d="M503.47,36.75h2.16c5.26,0,9.36-2.16,9.36-13.75v-2.81h2.16v16.56h14.4v2.16h-14.4v21.6c0,5.76,1.87,9.36,6.91,9.36,7.63,0,8.64-8.93,8.93-11.52l1.44.72c-.29,2.16-1.3,14.4-11.52,14.4-6.12,0-10.08-3.6-10.08-11.52v-23.04h-9.36v-2.16Z"/>
        <path class="cls-1" d="M568.71,52.59h-24.12c-.07.72-.07,1.44-.07,2.16,0,8.57,3.74,15.12,11.52,15.12,9.65,0,12.1-9.94,12.24-10.8l1.44.72c-.14.72-3.31,13.68-15.27,13.68-9.79,0-15.7-7.92-15.7-18,0-12.39,7.63-19.44,15.84-19.44,10.22,0,14.4,7.92,14.4,16.27l-.29.29ZM544.8,50.43h18.43c0-3.31,0-12.24-7.78-12.24-5.47,0-9.5,4.61-10.66,12.24Z"/>
        <path class="cls-1" d="M630.91,66.27v-3.17h-.29c-2.66,4.68-6.7,10.37-15.19,10.37-7.2,0-11.88-3.24-11.88-9.36,0-9,7.2-10.51,16.27-11.59,6.55-.79,11.09-1.73,11.09-5.76,0-5.69-3.96-8.93-10.44-8.93-6.84,0-7.34,2.45-7.71,5.11-.36,2.59-.58,5.33-4.03,5.33-1.37,0-3.02-.72-3.02-2.88,0-4.03,6.48-9.36,15.12-9.36,7.2,0,14.4,2.16,14.4,10.73v18.79c0,2.16.72,4.32,2.88,4.32,3.17,0,4.1-4.32,4.32-5.04l1.44.72c-1.51,4.32-3.6,7.92-7.2,7.92s-5.76-2.88-5.76-7.2ZM630.91,51.51c-2.74,1.22-6.7,2.16-10.44,2.88-6.48,1.22-11.16,2.88-11.16,9,0,5.4,3.31,7.2,7.92,7.2,10.44,0,13.68-11.52,13.68-15.12v-3.96Z"/>
        <path class="cls-1" d="M678.43,48.27c0-5.83-2.59-7.92-6.91-7.92-6.19,0-11.09,6.12-11.09,12.24v13.68c0,3.17,2.16,4.32,4.75,4.32h2.45v2.16h-18.72v-2.16h2.45c2.59,0,4.75-1.15,4.75-4.32v-18c0-4.03-.29-6.05-2.59-6.05-1.01,0-2.02.29-3.89,1.01l-.72-2.16,13.68-5.04.29.29-3.17,10.08h.29c3.89-6.05,8.78-10.37,14.4-10.37,5.33,0,8.35,3.46,8.35,8.5v21.75c0,3.17,2.16,4.32,4.75,4.32h2.45v2.16h-18.72v-2.16h2.45c2.59,0,4.75-1.15,4.75-4.32v-18Z"/>
        <path class="cls-1" d="M726.67,46.75c0,2.23-1.58,2.95-2.88,2.95-4.18,0-3.38-3.74-3.96-6.48-.58-2.88-1.8-5.4-6.12-5.4-6.84,0-10.8,6.77-10.8,16.92,0,8.57,3.74,15.12,11.59,15.12,9.58,0,12.03-9.94,12.17-10.8l1.44.72c-.14.72-3.31,13.68-15.27,13.68-9.79,0-15.7-7.92-15.7-18,0-12.39,7.63-19.44,15.84-19.44,10.08,0,13.68,6.77,13.68,10.73Z"/>
        <path class="cls-1" d="M766.7,52.59h-24.12c-.07.72-.07,1.44-.07,2.16,0,8.57,3.74,15.12,11.52,15.12,9.65,0,12.1-9.94,12.24-10.8l1.44.72c-.14.72-3.31,13.68-15.27,13.68-9.79,0-15.7-7.92-15.7-18,0-12.39,7.63-19.44,15.84-19.44,10.22,0,14.4,7.92,14.4,16.27l-.29.29ZM742.8,50.43h18.43c0-3.31,0-12.24-7.78-12.24-5.47,0-9.5,4.61-10.66,12.24Z"/>
        <path class="cls-1" d="M787.87,38.18c-4.32,0-6.48,2.88-6.48,5.76,0,4.9,5.04,6.05,10.51,7.63,6.62,1.87,13.97,3.53,13.97,11.81,0,5.76-4.25,10.08-11.52,10.08-6.05,0-8.06-3.17-9.79-3.17-1.01,0-1.73,1.01-2.88,2.16l-1.01,1.01h-.29l-4.75-14.4,1.44-.72c.5.86,6.48,12.24,16.56,12.24,5.83,0,7.92-2.74,7.92-5.76,0-5.33-5.04-6.91-10.66-8.64-6.62-2.02-13.83-3.6-13.83-10.8,0-5.04,3.6-9.36,10.44-9.36,4.97,0,6.41,2.3,8.42,2.3,1.15,0,1.73-.58,2.45-1.3l1.08-1.01h.29l4.68,12.96-1.44.72s-6.48-11.52-15.12-11.52Z"/>
        <path class="cls-1" d="M813.07,36.75h2.16c5.26,0,9.36-2.16,9.36-13.75v-2.81h2.16v16.56h14.4v2.16h-14.4v21.6c0,5.76,1.87,9.36,6.91,9.36,7.63,0,8.64-8.93,8.93-11.52l1.44.72c-.29,2.16-1.3,14.4-11.52,14.4-6.12,0-10.08-3.6-10.08-11.52v-23.04h-9.36v-2.16Z"/>
        <path class="cls-1" d="M867.07,36.02c10.8,0,18.72,7.92,18.72,18.72s-7.92,18.72-18.72,18.72-18.72-7.92-18.72-18.72,7.92-18.72,18.72-18.72ZM866.35,71.31c8.64,0,13.68-7.2,13.68-17.28,0-9.36-4.32-15.84-12.24-15.84-8.64,0-13.68,7.13-13.68,17.28,0,9.29,4.32,15.84,12.24,15.84Z"/>
        <path class="cls-1" d="M905.23,66.27c0,3.17,2.16,4.32,4.75,4.32h2.45v2.16h-18.72v-2.16h2.45c2.59,0,4.75-1.15,4.75-4.32v-18c0-4.03-.29-6.05-2.59-6.05-1.01,0-2.02.29-3.89,1.01l-.72-2.16,13.68-5.04.29.29-3.17,8.64h.29c4.82-4.75,9.94-8.93,13.68-8.93,1.73,0,3.31.58,3.31,2.74,0,2.02-1.01,3.02-3.02,3.02h-4.18c-5.76,0-9.22,4.9-9.36,5.18v19.3Z"/>
      </g>
    </g>
  </g>
</svg>