<?xml version="1.0" standalone="no"?>
<!DOCTYPE svg PUBLIC "-//W3C//DTD SVG 20010904//EN"
 "http://www.w3.org/TR/2001/REC-SVG-20010904/DTD/svg10.dtd">
<svg version="1.0" xmlns="http://www.w3.org/2000/svg"
 width="98.000000pt" height="98.000000pt" viewBox="0 0 98.000000 98.000000"
 preserveAspectRatio="xMidYMid meet">
<metadata>
Created by potrace 1.14, written by Peter Selinger 2001-2017
</metadata>
<g transform="translate(0.000000,98.000000) scale(0.100000,-0.100000)"
fill="#000000" stroke="none">
<path d="M410 948 c-25 -4 -57 -13 -72 -19 -15 -6 -63 -11 -107 -11 -45 0 -84
-4 -87 -9 -3 -5 2 -9 10 -9 8 0 27 -5 41 -10 l27 -10 -56 -61 c-183 -197 -182
-475 2 -659 181 -179 474 -180 653 0 180 179 185 457 13 649 -38 43 -46 56
-37 69 6 10 16 18 24 18 8 1 20 2 27 3 6 0 12 5 12 10 0 5 -37 8 -82 7 -56 -1
-102 4 -142 16 -68 21 -162 28 -226 16z m345 -59 c11 -16 1 -19 -13 -3 -7 8
-8 14 -3 14 5 0 13 -5 16 -11z"/>
</g>
</svg>
