<svg xmlns="http://www.w3.org/2000/svg" viewBox="0 0 40.04 41.83"><defs><style>.cls-1{fill:#eae4dc;}</style></defs><title>wrokko-Middel 2logo</title><g id="Laag_2" data-name="Laag 2"><g id="Laag_1-2" data-name="Laag 1"><path class="cls-1" d="M31.29,0V.82h1.1c1.34,0,2.07.33,2.07,1.09a1,1,0,0,1-.16.55l-5.5,9.6L23.91,2.73a2,2,0,0,1-.25-.82c0-.76.85-1.09,2.16-1.09h.82V0H13.4V.82h.82c1.31,0,2.16.33,2.16,1.09a1.83,1.83,0,0,1-.25.82l-4.89,9.33-5.5-9.6a1,1,0,0,1-.16-.55c0-.76.74-1.09,2.08-1.09H8.75V0H0V.82H.93A2.92,2.92,0,0,1,3.55,2.16l6.24,11v5.74c0,1.09-.77,1.64-2.41,1.64H5.74v.82H9.89a2.92,2.92,0,0,1,2.59,1.34l6.23,11v5.74c0,1.1-.76,1.64-2.4,1.64H14.67v.82h9.84V41H22.87c-1.64,0-2.41-.54-2.41-1.64V33.63l5.69-10.39c.78-1.42.93-1.89,2.53-1.91H34.3v-.82H32.66c-1.64,0-2.41-.55-2.41-1.64V13.13l6.24-11A2.92,2.92,0,0,1,39.11.82H40V0ZM25.06,23.24l-4.9,9.33L14.67,23a1,1,0,0,1-.17-.55c0-.77.74-1.09,2.08-1.09h1.09v-.82H13.9c-1.61,0-2.36-.56-2.36-1.64V13.13l5.69-10.4C18,1.29,18.16.82,19.85.82h.34c1.7,0,1.83.47,2.63,1.91l5.68,10.4v5.74c0,1.08-.75,1.63-2.36,1.64H22.32v.82h.82c1.32,0,2.16.32,2.16,1.09A2,2,0,0,1,25.06,23.24Z"/></g></g></svg>